# xmcd
#
# Track frame offsets:
#	150
#	14013
#	29600
#	38188
#	49558
#	57875
#	68365
#	78480
#	93315
#	106948
#	116968
#	126725
#
# Disc length: 1814 seconds
#
# Revision: 0
# Processed by: cddbd v1.5.1PL0 Copyright (c) Steve Scherf et al.
# Submitted via: dBpowerAMP V4.0
#
DISCID=a307140c
DTITLE=Various Artist - Italia Romántica
DYEAR=1900
DGENRE=Romántico
TTITLE0=Aquel error - Lucio Milena
TTITLE1=Una casa en la cima del mundo - Lucio Milena
TTITLE2=He comprendido que te amo - Lucio Milena
TTITLE3=A casa D'Irene - Lucio Milena
TTITLE4=De azul, pintado de azul - The Hot Pickles
TTITLE5=Enamorado de quien me quiera - Lucio Milena
TTITLE6=Vida mía - Lucio Milena
TTITLE7=Dios, como te amo - Lucio Milena
TTITLE8=Sola - Lucio Milena
TTITLE9=Pero - Lucio Milena
TTITLE10=Uno tranquilo - The Hot Pickles
TTITLE11=Presentimiento - Bingo Reyna
EXTD=
EXTT0=
EXTT1=
EXTT2=
EXTT3=
EXTT4=
EXTT5=
EXTT6=
EXTT7=
EXTT8=
EXTT9=
EXTT10=
EXTT11=
PLAYORDER=
